<svg xmlns="http://www.w3.org/2000/svg" xmlns:xlink="http://www.w3.org/1999/xlink" viewBox="0 0 559.85 561.32"><defs><style>.cls-1{fill:url(#linear-gradient);}</style><linearGradient id="linear-gradient" x1="469.87" y1="462.37" x2="22.53" y2="46.13" gradientUnits="userSpaceOnUse"><stop offset="0.57" stop-color="#e8395a"/><stop offset="0.73" stop-color="#e48141"/><stop offset="1" stop-color="#ddff15"/></linearGradient></defs><g id="Layer_2" data-name="Layer 2"><g id="Layer_1-2" data-name="Layer 1"><path class="cls-1" d="M559.85,342.25c0,121-98.09,219.07-219.07,219.07S121.71,463.23,121.71,342.25c0-4.29.11-8.55.36-12.79l-.36,0C115.07,175,0,119.49,0,119.49c85.12,5.52,136.43,44.84,167.32,88.94,43.56,62.16,46.59,133.82,46.59,133.82A131.3,131.3,0,1,0,345.2,211c-58.49-6.55-101.33-24-132.69-46.31C123.64,101.54,126.87,0,126.87,0c42.78,107.69,226.56,123.18,226.56,123.18l0,.36C468.52,130.09,559.85,225.5,559.85,342.25Z"/></g></g></svg>